# xmcd CD database file
#
# Track frame offsets:
#	150
#	32298
#	47543
#	66408
#	85930
#	102623
#	116588
#	131935
#	145723
#	161718
#	190268
#	211630
#	227153
#
# Disc length: 3259 seconds
#
# Revision: 2
# Processed by: cddbd v1.4b41PL1 Copyright (c) Steve Scherf et al.
# Submitted via: Feurio! 1.50.2ß - http://www.feurio.com
#
DISCID=b40cb90d
DTITLE=Nazareth - The Best of [CD 1)
DYEAR=1900
DGENRE=
TTITLE0=Morning Dew
TTITLE1=This Flight Tonight
TTITLE2=Hair Of The Dog
TTITLE3=I Want To Do Everything For You
TTITLE4=Broken Down Angel
TTITLE5=Go Down Fighting
TTITLE6=Holy Roller
TTITLE7=Place In Your Heart
TTITLE8=Dressed to Kill
TTITLE9=a.) Shapes Of Thing b.) Space Safari
TTITLE10=Wippin' Boy
TTITLE11=Dream On
TTITLE12=This Flight Tonight (Live)
EXTD=
EXTT0=
EXTT1=
EXTT2=
EXTT3=
EXTT4=
EXTT5=
EXTT6=
EXTT7=
EXTT8=
EXTT9=
EXTT10=
EXTT11=
EXTT12=
PLAYORDER=
